<svg xmlns="http://www.w3.org/2000/svg" viewBox="0 0 516 220" width="516" height="220" role="img" aria-label="hotato">
<title>hotato</title>
<defs><filter id="g" x="-20%" y="-40%" width="140%" height="180%"><feGaussianBlur stdDeviation="2.4"/></filter></defs>
<rect x="14" y="14" width="488" height="192" rx="15" fill="#16110d" stroke="#ff5a1f" stroke-opacity="0.32" stroke-width="1.4"/>
<circle cx="38" cy="33" r="4.4" fill="#ff5a1f" opacity="0.9"/><circle cx="55" cy="33" r="4.4" fill="#f5b942" opacity="0.9"/><circle cx="72" cy="33" r="4.4" fill="#3ecf8e" opacity="0.9"/><text x="258.0" y="37.5" text-anchor="middle" font-family="'Spline Sans Mono','SFMono-Regular',ui-monospace,'DejaVu Sans Mono',Menlo,Consolas,monospace" font-size="11.5" letter-spacing="0.14em" fill="#f6efe4" opacity="0.5">hotato</text><line x1="14" y1="48" x2="502" y2="48" stroke="#ff5a1f" stroke-opacity="0.12" stroke-width="1"/>
<g fill="none" stroke="#ff5a1f" stroke-width="1.7" stroke-linecap="round" opacity="0.85"><path d="M240.0 65 q4 -3 0 -6 q-4 -3 0 -6" /><path d="M255.0 65 q4 -3 0 -6 q-4 -3 0 -6" /><path d="M270.0 65 q4 -3 0 -6 q-4 -3 0 -6" /></g>
<g font-family="'Spline Sans Mono','SFMono-Regular',ui-monospace,'DejaVu Sans Mono',Menlo,Consolas,monospace" font-size="21" font-weight="500" fill="#ff7a3c" filter="url(#g)" opacity="0.55"><text x="56.2" y="83.0" textLength="403.6" lengthAdjust="spacing" xml:space="preserve" fill="#ff7a3c"> _           _        _        </text><text x="56.2" y="105.4" textLength="403.6" lengthAdjust="spacing" xml:space="preserve" fill="#ff7a3c">| |__   ___ | |_ __ _| |_ ___  </text><text x="56.2" y="127.8" textLength="403.6" lengthAdjust="spacing" xml:space="preserve" fill="#ff7a3c">| '_ \ / _ \| __/ _` | __/ _ \ </text><text x="56.2" y="150.2" textLength="403.6" lengthAdjust="spacing" xml:space="preserve" fill="#ff7a3c">| | | | (_) | || (_| | || (_) |</text><text x="56.2" y="172.6" textLength="403.6" lengthAdjust="spacing" xml:space="preserve" fill="#ff7a3c">|_| |_|\___/ \__\__,_|\__\___/ </text></g>
<g font-family="'Spline Sans Mono','SFMono-Regular',ui-monospace,'DejaVu Sans Mono',Menlo,Consolas,monospace" font-size="21" font-weight="500"><text x="56.2" y="83.0" textLength="403.6" lengthAdjust="spacing" xml:space="preserve" fill="#ff5a1f"> _           _        _        </text><text x="56.2" y="105.4" textLength="403.6" lengthAdjust="spacing" xml:space="preserve" fill="#ff5a1f">| |__   ___ | |_ __ _| |_ ___  </text><text x="56.2" y="127.8" textLength="403.6" lengthAdjust="spacing" xml:space="preserve" fill="#ff5a1f">| '_ \ / _ \| __/ _` | __/ _ \ </text><text x="56.2" y="150.2" textLength="403.6" lengthAdjust="spacing" xml:space="preserve" fill="#ff5a1f">| | | | (_) | || (_| | || (_) |</text><text x="56.2" y="172.6" textLength="403.6" lengthAdjust="spacing" xml:space="preserve" fill="#ff5a1f">|_| |_|\___/ \__\__,_|\__\___/ </text></g>
</svg>
