<svg xmlns="http://www.w3.org/2000/svg" viewBox="0 0 515 176" width="515" height="176" role="img" aria-label="hotato"><title>hotato</title><g transform="translate(46 38) scale(2.5)"><g fill="none" stroke="#ff5a1f" stroke-linecap="round" stroke-width="1.6"><path d="M17.5 7.2 q-1.8 -1.3 0 -2.5 q1.8 -1.2 0 -2.4"/><path d="M21 6.8 q1.9 -1.4 0 -2.7 q-1.9 -1.3 0 -2.6"/><path d="M24.5 7.4 q-1.7 -1.2 0 -2.3 q1.7 -1.1 0 -2.1"/></g><path d="M8 24c-1.5-8 4-14 13-14.5 10-.5 12 6 12 12 0 7-5.5 12-13.5 12C12 33.5 9 30 8 24Z" fill="#f5b942"/><g stroke="#16110d" stroke-width="2.2" stroke-linecap="round"><line x1="14.5" y1="21.5" x2="18.3" y2="21.5"/><line x1="21.7" y1="21.5" x2="25.5" y2="21.5"/><line x1="17.5" y1="27.4" x2="23.5" y2="27.4"/></g></g><g fill="#f6efe4" stroke="#16110d" stroke-width="24" stroke-linejoin="round" paint-order="stroke" transform="translate(172.09 122.74) scale(0.1020 -0.1020)"><path transform="translate(0 0)" d="M39 0V266L38 695H183V561Q183 541 181 508Q178 474 174 435Q169 397 165 360Q160 323 157 295H167Q175 381 198 435Q221 489 259 514Q298 539 352 539Q437 539 478 478Q519 417 519 296V0H375V289Q375 353 358 382Q340 412 302 412Q267 412 240 386Q214 361 198 308Q183 255 183 173V0Z"/><path transform="translate(541 0)" d="M282 -14Q207 -14 149 17Q90 47 57 108Q25 169 25 262Q25 357 59 418Q93 479 151 509Q210 539 283 539Q359 539 417 508Q475 478 507 416Q540 355 540 262Q540 166 506 105Q472 44 414 15Q355 -14 282 -14ZM285 94Q320 94 344 113Q368 132 381 168Q394 204 394 254Q394 309 380 346Q366 384 341 405Q315 425 279 425Q245 425 221 406Q196 387 184 351Q171 314 171 263Q171 184 201 139Q231 94 285 94Z"/><path transform="translate(1093 0)" d="M240 -11Q153 -11 110 34Q66 79 66 173V411H7V505H15Q70 511 94 541Q117 570 122 630L123 643H209V525H334V408H209V186Q209 148 227 131Q246 114 274 114Q289 114 305 119Q320 123 334 131V3Q305 -5 282 -8Q259 -11 240 -11Z"/><path transform="translate(1439 0)" d="M176 -14Q135 -14 100 0Q64 15 42 46Q19 77 19 129Q19 177 38 208Q56 238 88 256Q120 274 158 284Q196 294 235 301Q288 311 315 317Q341 322 350 331Q359 339 359 354Q359 388 335 406Q311 423 272 423Q249 423 225 415Q201 406 186 384Q170 362 170 323L41 334Q41 394 62 434Q82 473 117 496Q152 519 194 529Q236 539 277 539Q351 539 401 511Q450 484 475 431Q500 378 500 301V206Q500 172 500 137Q500 103 501 68Q501 34 501 0H374Q375 38 376 77Q377 116 377 158H371Q366 111 340 72Q314 33 272 9Q230 -14 176 -14ZM232 93Q252 93 275 102Q297 110 316 127Q335 145 347 173Q359 202 359 243L360 266L386 271Q378 257 357 249Q337 241 312 236Q287 232 261 227Q235 222 213 214Q191 206 178 191Q164 177 164 152Q164 124 183 109Q202 93 232 93Z"/><path transform="translate(1960 0)" d="M240 -11Q153 -11 110 34Q66 79 66 173V411H7V505H15Q70 511 94 541Q117 570 122 630L123 643H209V525H334V408H209V186Q209 148 227 131Q246 114 274 114Q289 114 305 119Q320 123 334 131V3Q305 -5 282 -8Q259 -11 240 -11Z"/><path transform="translate(2306 0)" d="M282 -14Q207 -14 149 17Q90 47 57 108Q25 169 25 262Q25 357 59 418Q93 479 151 509Q210 539 283 539Q359 539 417 508Q475 478 507 416Q540 355 540 262Q540 166 506 105Q472 44 414 15Q355 -14 282 -14ZM285 94Q320 94 344 113Q368 132 381 168Q394 204 394 254Q394 309 380 346Q366 384 341 405Q315 425 279 425Q245 425 221 406Q196 387 184 351Q171 314 171 263Q171 184 201 139Q231 94 285 94Z"/></g></svg>
