<svg xmlns="http://www.w3.org/2000/svg" viewBox="0 0 40 40" width="40" height="40" role="img" aria-label="hotato mascot">
  <title>hotato mascot: a steam potato</title>
  <!-- steam: 3 thin wavy verticals, centered over the crown, detached (>=2.2u gap to silhouette), staggered heights/phases so it never reads as horns -->
  <g fill="none" stroke-linecap="round" opacity="0.9">
    <path d="M17.5 7.2 q-1.8 -1.3 0 -2.5 q1.8 -1.2 0 -2.4" stroke="#e2470f" stroke-width="1.6"/>
    <path d="M21 6.8 q1.9 -1.4 0 -2.7 q-1.9 -1.3 0 -2.6" stroke="#ff5a1f" stroke-width="1.6"/>
    <path d="M24.5 7.4 q-1.7 -1.2 0 -2.3 q1.7 -1.1 0 -2.1" stroke="#e2470f" stroke-width="1.6"/>
  </g>
  <path d="M8 24c-1.5-8 4-14 13-14.5 10-.5 12 6 12 12 0 7-5.5 12-13.5 12C12 33.5 9 30 8 24Z" fill="#dcac5f" stroke="#1c140d" stroke-width="2"/>
  <ellipse cx="15" cy="19" rx="1.3" ry="1" fill="#7d531f"/>
  <ellipse cx="27" cy="26" rx="1.3" ry="1" fill="#7d531f"/>
  <line x1="15" y1="22" x2="19" y2="22" stroke="#1c140d" stroke-width="2.1" stroke-linecap="round"/>
  <line x1="23" y1="22" x2="27" y2="22" stroke="#1c140d" stroke-width="2.1" stroke-linecap="round"/>
  <line x1="18" y1="28" x2="24" y2="28" stroke="#1c140d" stroke-width="2.1" stroke-linecap="round"/>
</svg>
