<svg xmlns="http://www.w3.org/2000/svg" viewBox="0 0 40 40" width="40" height="40" role="img" aria-label="hotato mascot">
  <title>hotato mascot: a steam potato</title>
  <g opacity="0.9">
    <path d="M15 9 q-3 -3 0 -6" fill="none" stroke="#e2470f" stroke-width="2" stroke-linecap="round"/>
    <path d="M22 8 q3 -3 0 -6" fill="none" stroke="#ff5a1f" stroke-width="2" stroke-linecap="round"/>
  </g>
  <path d="M8 24c-1.5-8 4-14 13-14.5 10-.5 12 6 12 12 0 7-5.5 12-13.5 12C12 33.5 9 30 8 24Z" fill="#dcac5f" stroke="#1c140d" stroke-width="2"/>
  <ellipse cx="15" cy="19" rx="1.3" ry="1" fill="#7d531f"/>
  <ellipse cx="27" cy="26" rx="1.3" ry="1" fill="#7d531f"/>
  <line x1="15" y1="22" x2="19" y2="22" stroke="#1c140d" stroke-width="2.1" stroke-linecap="round"/>
  <line x1="23" y1="22" x2="27" y2="22" stroke="#1c140d" stroke-width="2.1" stroke-linecap="round"/>
  <line x1="18" y1="28" x2="24" y2="28" stroke="#1c140d" stroke-width="2.1" stroke-linecap="round"/>
</svg>
